<?xml version="1.0" encoding="UTF-8" standalone="no"?>
<svg
   viewBox="0 0 423.2 83.8"
   version="1.1"
   id="svg6"
   xmlns="http://www.w3.org/2000/svg"
   xmlns:svg="http://www.w3.org/2000/svg">
  <defs
     id="defs10" />
  <path
     d="M158.4,64.4H145.5a4,4,0,0,1-4-4V24.6a4,4,0,0,1,4-4h12.9c11.5,0,20.8,9.8,20.8,21.9s-9.3,21.9-20.8,21.9Zm0-35.8h-8.9V56.4h8.9c7.1,0,12.9-6.2,12.9-13.9s-5.8-13.9-12.9-13.9Zm48.5,35.8a4,4,0,0,1-4-4V24.6a4,4,0,1,1,8,0V60.4a4,4,0,0,1-4,4Zm50.8-17.2a4,4,0,0,1,0-8h9.8a4,4,0,0,1,4,4V55.7a4,4,0,0,1-1.2,2.9,20.87,20.87,0,0,1-14.4,5.8c-11.8,0-21.2-9.9-21.2-21.9s9.4-21.9,21.2-21.9a20.87,20.87,0,0,1,14.4,5.8,4,4,0,1,1-5.5,5.7,13.09,13.09,0,0,0-8.9-3.6c-7.3,0-13.3,6.2-13.3,13.9s6,13.9,13.3,13.9a12.55,12.55,0,0,0,7.7-2.6V47h-5.9Zm42.1,17.2a4,4,0,0,1-4-4V24.6a4,4,0,0,1,8,0V60.4a4,4,0,0,1-4,4Zm61.4-35.8H350V60.4a4,4,0,1,1-8,0V28.6H330.8a4,4,0,0,1,0-8h30.4a4,4,0,0,1,0,8Zm55.2,3.6a18.79,18.79,0,0,0-8.8-3.5,16.4,16.4,0,0,0-8.5,1c-2.9,1.4-2.9,3.2-2.9,3.9-.1,2.1.6,2.8,1.8,3.4,1.9.9,5.1,1.2,8.1,1.5,3.7.4,7.5.7,10.7,2.2,4.3,2,6.5,5.8,6.4,10.8s-3,8.7-7.5,10.8A24.9,24.9,0,0,1,402.8,64a25.72,25.72,0,0,1-12.7-5.1,4,4,0,0,1,4.9-6.3,17.72,17.72,0,0,0,8.8,3.4,16.4,16.4,0,0,0,8.5-1c1.2-.6,2.9-1.6,2.9-3.9.1-2.1-.6-2.8-1.8-3.4-1.9-.9-5.1-1.2-8.1-1.5-3.7-.4-7.5-.7-10.7-2.2-4.3-2-6.5-5.8-6.4-10.8s3-8.7,7.5-10.8a23.33,23.33,0,0,1,12.8-1.7,25.72,25.72,0,0,1,12.7,5.1,4.09,4.09,0,0,1,.7,5.6,3.72,3.72,0,0,1-5.5.8Z"
     fill="#fff"
     id="path2"
     style="fill:#000000;stroke:#000000;stroke-opacity:1" />
  <path
     d="M79.7,68.8a3.19,3.19,0,1,1-4.9-4.1A35.44,35.44,0,0,0,61.4,9.4a.1.1,0,0,1-.1-.1,3.18,3.18,0,1,1,2.6-5.8A41.74,41.74,0,0,1,89.4,42,42.29,42.29,0,0,1,79.7,68.8ZM50,6.6,27.9,6.5h-.1A3.25,3.25,0,1,1,27.9,0H47.6a26.2,26.2,0,0,1,2.8.1,3.1,3.1,0,0,1,3,3.1v.4A3,3,0,0,1,50,6.6ZM65.4,19.1a3.83,3.83,0,0,1,1.3,2.4,3.41,3.41,0,0,1-.7,2.2,3.19,3.19,0,0,1-4.5.5,22.14,22.14,0,0,0-13.8-4.7H10.9A3.25,3.25,0,0,1,11,13H47.7A29,29,0,0,1,65.4,19.1ZM63.7,41.9A16.09,16.09,0,0,1,47.6,58H35.5a3.24,3.24,0,0,1-3.2-3.3V41.9a3.31,3.31,0,0,1,3.2-3.3h.1a3.24,3.24,0,0,1,3.2,3.3v9.6h8.8a9.6,9.6,0,0,0,0-19.2H3.2a3.25,3.25,0,0,1,.1-6.5H47.6A16.22,16.22,0,0,1,63.7,41.9ZM20.9,45.2H11a3.2,3.2,0,0,1,.2-6.4h9.9A3.22,3.22,0,0,1,24.3,42v.1A3.25,3.25,0,0,1,20.9,45.2ZM3.8,51.6H21.1a3.31,3.31,0,0,1,3.3,3.2v.1a3.24,3.24,0,0,1-3.3,3.2H3.7A3.24,3.24,0,0,1,.5,54.8,3.31,3.31,0,0,1,3.8,51.6Zm7.1,12.8H47.6A22.41,22.41,0,0,0,70.1,41.9a23.64,23.64,0,0,0-1.3-7.5h0a3.23,3.23,0,1,1,6.1-2.1,28.11,28.11,0,0,1,1.7,9.6A28.91,28.91,0,0,1,47.7,70.8H10.9a3.24,3.24,0,0,1-3.2-3.3A3.14,3.14,0,0,1,10.9,64.4Zm17,12.9H47.6a35.73,35.73,0,0,0,17-4.3,2.82,2.82,0,0,1,1.5-.4,3.31,3.31,0,0,1,3.3,3.2,3.24,3.24,0,0,1-1.7,2.9,41.11,41.11,0,0,1-20.1,5.1H27.8a3.24,3.24,0,0,1-3.2-3.3A3.38,3.38,0,0,1,27.9,77.3Z"
     fill="#00d4ac"
     fill-rule="evenodd"
     id="path4" />
</svg>
